<?xml version="1.0" encoding="UTF-8"?><svg xmlns="http://www.w3.org/2000/svg" viewBox="0 0 36 36">
 <g id="change1_1"><circle cx="7" cy="6" fill="#FFCC4D" r="6"/></g>
 <g id="change1_2"><circle cx="18" cy="30" fill="#FFCC4D" r="6"/></g>
 <g id="change2_1"><circle cx="18" cy="30" fill="#DD2E44" r="4"/></g>
 <g id="change1_3"><circle cx="29" cy="6" fill="#FFCC4D" r="6"/></g>
 <g id="change3_1"><circle cx="7" cy="6" fill="#E6AAAA" r="4"/></g>
 <g id="change3_2"><circle cx="29" cy="6" fill="#E6AAAA" r="4"/></g>
 <g id="change1_4"><path d="m34 22c0 7-4.923 7-4.923 7h-22.154s-4.923 0-4.923-7 1.231-22 16-22c14.77 0 16 22 16 22z" fill="#FFCC4D"/></g>
 <g id="change4_1"><path d="m11 17s0-2 2-2 2 2 2 2v2s0 2-2 2-2-2-2-2v-2zm10 0s0-2 2-2 2 2 2 2v2s0 2-2 2-2-2-2-2v-2z" fill="#272B2B"/></g>
 <g id="change5_1"><path d="m23.678 23c-2.402 0-4.501 0.953-5.678 2.378-1.177-1.425-3.277-2.378-5.679-2.378-10.321 0-10.278 0.421-10.321 3.182-0.087 5.61 6.63 6.9 10.321 6.818 2.401-0.053 4.502-0.989 5.679-2.397 1.177 1.408 3.276 2.345 5.678 2.397 3.691 0.082 10.409-1.208 10.321-6.818-0.043-2.761 0-3.182-10.321-3.182z" fill="#FFF"/></g>
 <g id="change4_2"><path d="m33.66 25.242c0.204 0.279 0.333 0.588 0.339 0.939 0.03 1.905-0.745 3.303-1.915 4.327l-5.085 0.492 6.661-5.758zm-18.66-0.242c-1 1 2 4 3 4s4-3 3-4-5-1-6 0zm-5-22c2.667 2 8 4 8 4s5.333-2 8-4l-8 1-8-1zm8-1s1.652-0.62 3.576-1.514c-1.096-0.308-2.281-0.486-3.576-0.486s-2.481 0.178-3.576 0.486c1.924 0.894 3.576 1.514 3.576 1.514zm-7 7c3 2 7 4 7 4s4-2 7-4l-7 1-7-1zm20.645 2.285l-4.645 3.715 6.006 0.75c-0.334-1.401-0.777-2.928-1.361-4.465zm1.911 7.159l-5.556 5.556h5.835c0.102-0.595 0.165-1.251 0.165-2 0 0-0.081-1.43-0.444-3.556zm-31.112 0c-0.362 2.126-0.444 3.556-0.444 3.556 0 0.748 0.063 1.405 0.165 2h5.835l-5.556-5.556zm-0.105 6.798c-0.204 0.279-0.333 0.588-0.339 0.94-0.03 1.905 0.745 3.303 1.916 4.327l5.084 0.491-6.661-5.758zm6.661-10.242l-4.644-3.715c-0.584 1.537-1.028 3.064-1.361 4.466l6.005-0.751z" fill="#272B2B"/></g>
</svg>